<?xml version="1.0" encoding="iso-8859-1"?>
<!-- Uploaded to: SVG Repo, www.svgrepo.com, Generator: SVG Repo Mixer Tools -->
<!DOCTYPE svg PUBLIC "-//W3C//DTD SVG 1.1//EN" "http://www.w3.org/Graphics/SVG/1.1/DTD/svg11.dtd">
<svg fill="#000000" height="800px" width="800px" version="1.1" id="Capa_1" xmlns="http://www.w3.org/2000/svg" xmlns:xlink="http://www.w3.org/1999/xlink" 
	 viewBox="0 0 335.358 335.358" xml:space="preserve">
<g>
	<path d="M296.385,99.68v135.996c19.148-16.431,31.294-40.788,31.294-67.998C327.679,140.468,315.533,116.111,296.385,99.68z"/>
	<path d="M270.038,3.153c-6.546-3.957-14.684-4.205-21.456-0.653L117.058,71.477H29.529c-12.068,0-21.851,9.784-21.851,21.851
		v148.701c0,12.069,9.783,21.851,21.851,21.851h87.529l131.524,68.979c3.184,1.668,6.668,2.499,10.148,2.499
		c3.923,0,7.839-1.055,11.308-3.152c6.545-3.959,10.544-11.052,10.544-18.699V21.85C280.582,14.202,276.583,7.112,270.038,3.153z
		 M84.282,231.105H40.456V104.251h43.827V231.105z"/>
</g>
</svg>